<svg width="18" height="18" viewBox="0 0 18 18" fill="none" xmlns="http://www.w3.org/2000/svg">
<path d="M5.69813 1.83805C5.69813 1.6918 5.64003 1.55155 5.53662 1.44813C5.4332 1.34472 5.29294 1.28662 5.1467 1.28662C5.00045 1.28662 4.86019 1.34472 4.75677 1.44813C4.65336 1.55155 4.59526 1.6918 4.59526 1.83805V2.99974C3.53651 3.08429 2.84244 3.29163 2.33219 3.80262C1.82119 4.31288 1.61385 5.00769 1.52856 6.0657H16.1173C16.032 5.00695 15.8246 4.31288 15.3136 3.80262C14.8034 3.29163 14.1086 3.08429 13.0506 2.999V1.83805C13.0506 1.6918 12.9925 1.55155 12.889 1.44813C12.7856 1.34472 12.6454 1.28662 12.4991 1.28662C12.3529 1.28662 12.2126 1.34472 12.1092 1.44813C12.0058 1.55155 11.9477 1.6918 11.9477 1.83805V2.95048C11.4588 2.94092 10.9103 2.94092 10.2934 2.94092H7.35243C6.73556 2.94092 6.18706 2.94092 5.69813 2.95048V1.83805Z" fill="#233E99"/>
<path fill-rule="evenodd" clip-rule="evenodd" d="M1.47046 8.82275C1.47046 8.20589 1.47046 7.65739 1.48002 7.16846H16.1658C16.1753 7.65739 16.1753 8.20589 16.1753 8.82275V10.2932C16.1753 13.0658 16.1753 14.4525 15.3136 15.3135C14.4519 16.1744 13.066 16.1752 10.2934 16.1752H7.3524C4.5798 16.1752 3.19313 16.1752 2.33216 15.3135C1.47119 14.4518 1.47046 13.0658 1.47046 10.2932V8.82275ZM12.4991 10.2932C12.6941 10.2932 12.8811 10.2158 13.019 10.0779C13.1569 9.94001 13.2343 9.753 13.2343 9.558C13.2343 9.363 13.1569 9.17599 13.019 9.0381C12.8811 8.90022 12.6941 8.82275 12.4991 8.82275C12.3041 8.82275 12.1171 8.90022 11.9792 9.0381C11.8413 9.17599 11.7639 9.363 11.7639 9.558C11.7639 9.753 11.8413 9.94001 11.9792 10.0779C12.1171 10.2158 12.3041 10.2932 12.4991 10.2932ZM12.4991 13.2342C12.6941 13.2342 12.8811 13.1568 13.019 13.0189C13.1569 12.881 13.2343 12.694 13.2343 12.499C13.2343 12.304 13.1569 12.117 13.019 11.9791C12.8811 11.8412 12.6941 11.7637 12.4991 11.7637C12.3041 11.7637 12.1171 11.8412 11.9792 11.9791C11.8413 12.117 11.7639 12.304 11.7639 12.499C11.7639 12.694 11.8413 12.881 11.9792 13.0189C12.1171 13.1568 12.3041 13.2342 12.4991 13.2342ZM9.55813 9.558C9.55813 9.753 9.48067 9.94001 9.34279 10.0779C9.2049 10.2158 9.01789 10.2932 8.82289 10.2932C8.62789 10.2932 8.44088 10.2158 8.303 10.0779C8.16511 9.94001 8.08765 9.753 8.08765 9.558C8.08765 9.363 8.16511 9.17599 8.303 9.0381C8.44088 8.90022 8.62789 8.82275 8.82289 8.82275C9.01789 8.82275 9.2049 8.90022 9.34279 9.0381C9.48067 9.17599 9.55813 9.363 9.55813 9.558ZM9.55813 12.499C9.55813 12.694 9.48067 12.881 9.34279 13.0189C9.2049 13.1568 9.01789 13.2342 8.82289 13.2342C8.62789 13.2342 8.44088 13.1568 8.303 13.0189C8.16511 12.881 8.08765 12.694 8.08765 12.499C8.08765 12.304 8.16511 12.117 8.303 11.9791C8.44088 11.8412 8.62789 11.7637 8.82289 11.7637C9.01789 11.7637 9.2049 11.8412 9.34279 11.9791C9.48067 12.117 9.55813 12.304 9.55813 12.499ZM5.14667 10.2932C5.34167 10.2932 5.52869 10.2158 5.66657 10.0779C5.80445 9.94001 5.88192 9.753 5.88192 9.558C5.88192 9.363 5.80445 9.17599 5.66657 9.0381C5.52869 8.90022 5.34167 8.82275 5.14667 8.82275C4.95168 8.82275 4.76466 8.90022 4.62678 9.0381C4.48889 9.17599 4.41143 9.363 4.41143 9.558C4.41143 9.753 4.48889 9.94001 4.62678 10.0779C4.76466 10.2158 4.95168 10.2932 5.14667 10.2932ZM5.14667 13.2342C5.34167 13.2342 5.52869 13.1568 5.66657 13.0189C5.80445 12.881 5.88192 12.694 5.88192 12.499C5.88192 12.304 5.80445 12.117 5.66657 11.9791C5.52869 11.8412 5.34167 11.7637 5.14667 11.7637C4.95168 11.7637 4.76466 11.8412 4.62678 11.9791C4.48889 12.117 4.41143 12.304 4.41143 12.499C4.41143 12.694 4.48889 12.881 4.62678 13.0189C4.76466 13.1568 4.95168 13.2342 5.14667 13.2342Z" fill="#233E99"/>
</svg>
