<svg width="18" height="18" viewBox="0 0 18 18" fill="none" xmlns="http://www.w3.org/2000/svg">
<path d="M5.69813 1.83805C5.69813 1.6918 5.64003 1.55155 5.53662 1.44813C5.4332 1.34472 5.29294 1.28662 5.1467 1.28662C5.00045 1.28662 4.86019 1.34472 4.75677 1.44813C4.65336 1.55155 4.59526 1.6918 4.59526 1.83805V2.99974C3.53651 3.08429 2.84244 3.29163 2.33219 3.80262C1.82119 4.31288 1.61385 5.00769 1.52856 6.0657H16.1173C16.032 5.00695 15.8246 4.31288 15.3136 3.80262C14.8034 3.29163 14.1086 3.08429 13.0506 2.999V1.83805C13.0506 1.6918 12.9925 1.55155 12.889 1.44813C12.7856 1.34472 12.6454 1.28662 12.4991 1.28662C12.3529 1.28662 12.2126 1.34472 12.1092 1.44813C12.0058 1.55155 11.9477 1.6918 11.9477 1.83805V2.95048C11.4588 2.94092 10.9103 2.94092 10.2934 2.94092H7.35243C6.73556 2.94092 6.18706 2.94092 5.69813 2.95048V1.83805Z" fill="#93D500"/>
<path fill-rule="evenodd" clip-rule="evenodd" d="M1.47046 8.82288C1.47046 8.20601 1.47046 7.65752 1.48002 7.16858H16.1658C16.1753 7.65752 16.1753 8.20601 16.1753 8.82288V10.2934C16.1753 13.066 16.1753 14.4526 15.3136 15.3136C14.4519 16.1746 13.066 16.1753 10.2934 16.1753H7.3524C4.5798 16.1753 3.19313 16.1753 2.33216 15.3136C1.47119 14.4519 1.47046 13.066 1.47046 10.2934V8.82288ZM12.4991 10.2934C12.6941 10.2934 12.8811 10.2159 13.019 10.078C13.1569 9.94013 13.2343 9.75312 13.2343 9.55812C13.2343 9.36312 13.1569 9.17611 13.019 9.03822C12.8811 8.90034 12.6941 8.82288 12.4991 8.82288C12.3041 8.82288 12.1171 8.90034 11.9792 9.03822C11.8413 9.17611 11.7639 9.36312 11.7639 9.55812C11.7639 9.75312 11.8413 9.94013 11.9792 10.078C12.1171 10.2159 12.3041 10.2934 12.4991 10.2934ZM12.4991 13.2343C12.6941 13.2343 12.8811 13.1569 13.019 13.019C13.1569 12.8811 13.2343 12.6941 13.2343 12.4991C13.2343 12.3041 13.1569 12.1171 13.019 11.9792C12.8811 11.8413 12.6941 11.7638 12.4991 11.7638C12.3041 11.7638 12.1171 11.8413 11.9792 11.9792C11.8413 12.1171 11.7639 12.3041 11.7639 12.4991C11.7639 12.6941 11.8413 12.8811 11.9792 13.019C12.1171 13.1569 12.3041 13.2343 12.4991 13.2343ZM9.55813 9.55812C9.55813 9.75312 9.48067 9.94013 9.34279 10.078C9.2049 10.2159 9.01789 10.2934 8.82289 10.2934C8.62789 10.2934 8.44088 10.2159 8.303 10.078C8.16511 9.94013 8.08765 9.75312 8.08765 9.55812C8.08765 9.36312 8.16511 9.17611 8.303 9.03822C8.44088 8.90034 8.62789 8.82288 8.82289 8.82288C9.01789 8.82288 9.2049 8.90034 9.34279 9.03822C9.48067 9.17611 9.55813 9.36312 9.55813 9.55812ZM9.55813 12.4991C9.55813 12.6941 9.48067 12.8811 9.34279 13.019C9.2049 13.1569 9.01789 13.2343 8.82289 13.2343C8.62789 13.2343 8.44088 13.1569 8.303 13.019C8.16511 12.8811 8.08765 12.6941 8.08765 12.4991C8.08765 12.3041 8.16511 12.1171 8.303 11.9792C8.44088 11.8413 8.62789 11.7638 8.82289 11.7638C9.01789 11.7638 9.2049 11.8413 9.34279 11.9792C9.48067 12.1171 9.55813 12.3041 9.55813 12.4991ZM5.14667 10.2934C5.34167 10.2934 5.52869 10.2159 5.66657 10.078C5.80445 9.94013 5.88192 9.75312 5.88192 9.55812C5.88192 9.36312 5.80445 9.17611 5.66657 9.03822C5.52869 8.90034 5.34167 8.82288 5.14667 8.82288C4.95168 8.82288 4.76466 8.90034 4.62678 9.03822C4.48889 9.17611 4.41143 9.36312 4.41143 9.55812C4.41143 9.75312 4.48889 9.94013 4.62678 10.078C4.76466 10.2159 4.95168 10.2934 5.14667 10.2934ZM5.14667 13.2343C5.34167 13.2343 5.52869 13.1569 5.66657 13.019C5.80445 12.8811 5.88192 12.6941 5.88192 12.4991C5.88192 12.3041 5.80445 12.1171 5.66657 11.9792C5.52869 11.8413 5.34167 11.7638 5.14667 11.7638C4.95168 11.7638 4.76466 11.8413 4.62678 11.9792C4.48889 12.1171 4.41143 12.3041 4.41143 12.4991C4.41143 12.6941 4.48889 12.8811 4.62678 13.019C4.76466 13.1569 4.95168 13.2343 5.14667 13.2343Z" fill="#93D500"/>
</svg>
