<svg width="35" height="36" viewBox="0 0 35 36" fill="none" xmlns="http://www.w3.org/2000/svg">
<path d="M10.0624 1.3125C10.0624 0.964403 9.92415 0.630564 9.67801 0.384422C9.43187 0.138281 9.09803 0 8.74993 0C8.40184 0 8.068 0.138281 7.82186 0.384422C7.57571 0.630564 7.43743 0.964403 7.43743 1.3125V4.0775C4.91743 4.27875 3.26543 4.77225 2.05093 5.9885C0.834683 7.203 0.341184 8.85675 0.138184 11.375H34.8617C34.6587 8.855 34.1652 7.203 32.9489 5.9885C31.7344 4.77225 30.0807 4.27875 27.5624 4.07575V1.3125C27.5624 0.964403 27.4242 0.630564 27.178 0.384422C26.9319 0.138281 26.598 0 26.2499 0C25.9018 0 25.568 0.138281 25.3219 0.384422C25.0757 0.630564 24.9374 0.964403 24.9374 1.3125V3.96025C23.7737 3.9375 22.4682 3.9375 20.9999 3.9375H13.9999C12.5317 3.9375 11.2262 3.9375 10.0624 3.96025V1.3125Z" fill="#93D500"/>
<path fill-rule="evenodd" clip-rule="evenodd" d="M0 17.9375C0 16.4693 1.95578e-08 15.1638 0.02275 14H34.9773C35 15.1638 35 16.4693 35 17.9375V21.4375C35 28.0368 35 31.3372 32.949 33.3865C30.898 35.4357 27.5993 35.4375 21 35.4375H14C7.40075 35.4375 4.10025 35.4375 2.051 33.3865C0.00174987 31.3355 0 28.0368 0 21.4375V17.9375ZM26.25 21.4375C26.7141 21.4375 27.1593 21.2531 27.4874 20.9249C27.8156 20.5967 28 20.1516 28 19.6875C28 19.2234 27.8156 18.7783 27.4874 18.4501C27.1593 18.1219 26.7141 17.9375 26.25 17.9375C25.7859 17.9375 25.3408 18.1219 25.0126 18.4501C24.6844 18.7783 24.5 19.2234 24.5 19.6875C24.5 20.1516 24.6844 20.5967 25.0126 20.9249C25.3408 21.2531 25.7859 21.4375 26.25 21.4375ZM26.25 28.4375C26.7141 28.4375 27.1593 28.2531 27.4874 27.9249C27.8156 27.5968 28 27.1516 28 26.6875C28 26.2234 27.8156 25.7783 27.4874 25.4501C27.1593 25.1219 26.7141 24.9375 26.25 24.9375C25.7859 24.9375 25.3408 25.1219 25.0126 25.4501C24.6844 25.7783 24.5 26.2234 24.5 26.6875C24.5 27.1516 24.6844 27.5968 25.0126 27.9249C25.3408 28.2531 25.7859 28.4375 26.25 28.4375ZM19.25 19.6875C19.25 20.1516 19.0656 20.5967 18.7374 20.9249C18.4093 21.2531 17.9641 21.4375 17.5 21.4375C17.0359 21.4375 16.5908 21.2531 16.2626 20.9249C15.9344 20.5967 15.75 20.1516 15.75 19.6875C15.75 19.2234 15.9344 18.7783 16.2626 18.4501C16.5908 18.1219 17.0359 17.9375 17.5 17.9375C17.9641 17.9375 18.4093 18.1219 18.7374 18.4501C19.0656 18.7783 19.25 19.2234 19.25 19.6875ZM19.25 26.6875C19.25 27.1516 19.0656 27.5968 18.7374 27.9249C18.4093 28.2531 17.9641 28.4375 17.5 28.4375C17.0359 28.4375 16.5908 28.2531 16.2626 27.9249C15.9344 27.5968 15.75 27.1516 15.75 26.6875C15.75 26.2234 15.9344 25.7783 16.2626 25.4501C16.5908 25.1219 17.0359 24.9375 17.5 24.9375C17.9641 24.9375 18.4093 25.1219 18.7374 25.4501C19.0656 25.7783 19.25 26.2234 19.25 26.6875ZM8.75 21.4375C9.21413 21.4375 9.65925 21.2531 9.98744 20.9249C10.3156 20.5967 10.5 20.1516 10.5 19.6875C10.5 19.2234 10.3156 18.7783 9.98744 18.4501C9.65925 18.1219 9.21413 17.9375 8.75 17.9375C8.28587 17.9375 7.84075 18.1219 7.51256 18.4501C7.18438 18.7783 7 19.2234 7 19.6875C7 20.1516 7.18438 20.5967 7.51256 20.9249C7.84075 21.2531 8.28587 21.4375 8.75 21.4375ZM8.75 28.4375C9.21413 28.4375 9.65925 28.2531 9.98744 27.9249C10.3156 27.5968 10.5 27.1516 10.5 26.6875C10.5 26.2234 10.3156 25.7783 9.98744 25.4501C9.65925 25.1219 9.21413 24.9375 8.75 24.9375C8.28587 24.9375 7.84075 25.1219 7.51256 25.4501C7.18438 25.7783 7 26.2234 7 26.6875C7 27.1516 7.18438 27.5968 7.51256 27.9249C7.84075 28.2531 8.28587 28.4375 8.75 28.4375Z" fill="#93D500"/>
</svg>
