<svg width="20" height="22" viewBox="0 0 20 22" fill="none" xmlns="http://www.w3.org/2000/svg">
<path d="M15.25 0C14.9848 0 14.7304 0.105357 14.5429 0.292893C14.3554 0.48043 14.25 0.734784 14.25 1V6C14.25 6.26522 14.3554 6.51957 14.5429 6.70711C14.7304 6.89464 14.9848 7 15.25 7H16.5V21.375C16.5 21.5408 16.5658 21.6997 16.6831 21.8169C16.8003 21.9342 16.9592 22 17.125 22C17.2908 22 17.4497 21.9342 17.5669 21.8169C17.6842 21.6997 17.75 21.5408 17.75 21.375V7H19C19.2652 7 19.5196 6.89464 19.7071 6.70711C19.8946 6.51957 20 6.26522 20 6V1C20 0.734784 19.8946 0.48043 19.7071 0.292893C19.5196 0.105357 19.2652 0 19 0H15.25ZM13.25 2.0935C13.0012 2.0315 12.7459 2.0001 12.4895 2H5.3365C4.63708 2.00006 3.95789 2.23475 3.40765 2.66652C2.8574 3.09828 2.46791 3.70216 2.3015 4.3815L1.905 6H0.625C0.45924 6 0.300269 6.06585 0.183058 6.18306C0.0658481 6.30027 4.56342e-08 6.45924 4.56342e-08 6.625C4.56342e-08 6.79076 0.0658481 6.94973 0.183058 7.06694C0.300269 7.18415 0.45924 7.25 0.625 7.25H1.599L1.3825 8.1335C0.976501 8.2849 0.62649 8.55681 0.379389 8.91276C0.132289 9.26871 -8.97319e-05 9.69169 4.56342e-08 10.125V18.875C4.56342e-08 19.306 0.171205 19.7193 0.475951 20.024C0.780698 20.3288 1.19402 20.5 1.625 20.5H3.375C3.80598 20.5 4.2193 20.3288 4.52405 20.024C4.82879 19.7193 5 19.306 5 18.875V17.25H13V18.875C13 19.306 13.1712 19.7193 13.476 20.024C13.7807 20.3288 14.194 20.5 14.625 20.5H15.5V19.25H14.625C14.5255 19.25 14.4302 19.2105 14.3598 19.1402C14.2895 19.0698 14.25 18.9745 14.25 18.875V17.25H15.5V8H2.702L3.5155 4.679C3.61532 4.27138 3.84901 3.90903 4.17916 3.64995C4.50931 3.39087 4.91683 3.25004 5.3365 3.25H12.49C12.758 3.25 13.0165 3.307 13.2505 3.411L13.25 2.0935ZM1.25 17.25H3.75V18.875C3.75 18.9745 3.71049 19.0698 3.64016 19.1402C3.56984 19.2105 3.47446 19.25 3.375 19.25H1.625C1.52554 19.25 1.43016 19.2105 1.35984 19.1402C1.28951 19.0698 1.25 18.9745 1.25 18.875V17.25ZM3 12C3 11.7348 3.10536 11.4804 3.29289 11.2929C3.48043 11.1054 3.73478 11 4 11C4.26522 11 4.51957 11.1054 4.70711 11.2929C4.89464 11.4804 5 11.7348 5 12C5 12.2652 4.89464 12.5196 4.70711 12.7071C4.51957 12.8946 4.26522 13 4 13C3.73478 13 3.48043 12.8946 3.29289 12.7071C3.10536 12.5196 3 12.2652 3 12ZM14 13C13.7348 13 13.4804 12.8946 13.2929 12.7071C13.1054 12.5196 13 12.2652 13 12C13 11.7348 13.1054 11.4804 13.2929 11.2929C13.4804 11.1054 13.7348 11 14 11C14.2652 11 14.5196 11.1054 14.7071 11.2929C14.8946 11.4804 15 11.7348 15 12C15 12.2652 14.8946 12.5196 14.7071 12.7071C14.5196 12.8946 14.2652 13 14 13ZM10.875 13C11.0408 13 11.1997 13.0658 11.3169 13.1831C11.4342 13.3003 11.5 13.4592 11.5 13.625C11.5 13.7908 11.4342 13.9497 11.3169 14.0669C11.1997 14.1842 11.0408 14.25 10.875 14.25H7.125C6.95924 14.25 6.80027 14.1842 6.68306 14.0669C6.56585 13.9497 6.5 13.7908 6.5 13.625C6.5 13.4592 6.56585 13.3003 6.68306 13.1831C6.80027 13.0658 6.95924 13 7.125 13H10.875Z" fill="#373737"/>
</svg>
