<svg width="30" height="30" viewBox="0 0 30 30" fill="none" xmlns="http://www.w3.org/2000/svg">
<path d="M15 1C22.7322 1 29 7.26779 29 15C29 22.7322 22.7322 29 15 29C7.26779 29 1 22.7322 1 15C1 7.26779 7.26779 1 15 1ZM17.3428 5.41113C16.8821 5.22524 16.3729 5.19714 15.8945 5.33105C15.4759 5.44828 15.1015 5.68404 14.8154 6.00781L14.6992 6.15039L7.94922 15.1494C7.69836 15.4837 7.54635 15.8816 7.50879 16.2979C7.47125 16.7141 7.55026 17.133 7.7373 17.5068C7.92433 17.8805 8.2118 18.1946 8.56738 18.4141C8.92282 18.6334 9.33232 18.7492 9.75 18.749H11.7012L11.2676 22.2168C11.2043 22.7099 11.3065 23.2105 11.5576 23.6396C11.8087 24.0685 12.1946 24.4025 12.6553 24.5889C13.1162 24.7752 13.6267 24.803 14.1055 24.6689C14.5835 24.5351 15.0027 24.2463 15.2998 23.8486L15.3008 23.8496L22.0508 14.8506C22.3016 14.5163 22.4536 14.1184 22.4912 13.7021C22.5287 13.2858 22.4497 12.867 22.2627 12.4932C22.0757 12.1195 21.7882 11.8054 21.4326 11.5859C21.0772 11.3666 20.6677 11.2508 20.25 11.251H18.2988L18.7324 7.78027C18.7949 7.28748 18.6927 6.78788 18.4414 6.35938C18.19 5.93079 17.8035 5.5971 17.3428 5.41113Z" stroke="white" stroke-width="2"/>
</svg>
