<svg width="30" height="30" viewBox="0 0 30 30" fill="none" xmlns="http://www.w3.org/2000/svg">
<path d="M15 0C23.2845 0 30 6.7155 30 15C30 23.2845 23.2845 30 15 30C6.7155 30 0 23.2845 0 15C0 6.7155 6.7155 0 15 0ZM15.4995 6.75L8.7495 15.75C8.61014 15.9357 8.52527 16.1566 8.50442 16.3878C8.48357 16.619 8.52756 16.8515 8.63146 17.0591C8.73535 17.2668 8.89504 17.4413 9.09261 17.5633C9.29018 17.6852 9.51783 17.7497 9.75 17.7495H12.834L12.2595 22.344C12.2243 22.6179 12.2809 22.8958 12.4204 23.1342C12.5599 23.3725 12.7745 23.558 13.0305 23.6615C13.2866 23.765 13.5697 23.7808 13.8356 23.7063C14.1016 23.6319 14.3354 23.4714 14.5005 23.25L21.2505 14.25C21.3899 14.0643 21.4747 13.8434 21.4956 13.6122C21.5164 13.381 21.4724 13.1485 21.3685 12.9409C21.2647 12.7332 21.105 12.5587 20.9074 12.4367C20.7098 12.3148 20.4822 12.2503 20.25 12.2505H17.166L17.7405 7.6545C17.7752 7.3807 17.7183 7.10311 17.5787 6.86505C17.4391 6.62699 17.2245 6.44186 16.9686 6.33857C16.7127 6.23527 16.4297 6.21961 16.164 6.29404C15.8982 6.36847 15.6646 6.5288 15.4995 6.75Z" fill="white"/>
</svg>
