<svg width="30" height="30" viewBox="0 0 30 30" fill="none" xmlns="http://www.w3.org/2000/svg">
<path d="M15 1C22.7127 1 29 7.28728 29 15C29 22.7127 22.7127 29 15 29C7.28728 29 1 22.7127 1 15C1 7.28728 7.28728 1 15 1ZM18.084 12.5039C17.8039 12.4803 17.5288 12.5752 17.3242 12.7627L17.2412 12.8496L13.4434 17.2793L11.957 15.793C11.7585 15.5944 11.4856 15.4884 11.2051 15.501C10.9244 15.5137 10.6613 15.6436 10.4814 15.8594L6.73145 20.3594C6.48308 20.6574 6.43023 21.0725 6.59473 21.4238C6.75931 21.7752 7.11198 22 7.5 22H22.5C22.8601 22 23.1926 21.8064 23.3701 21.4932C23.5476 21.1797 23.5428 20.7943 23.3574 20.4854L18.8574 12.9854C18.692 12.7098 18.4042 12.5309 18.084 12.5039ZM9.75 8C7.95272 8 6.5 9.45272 6.5 11.25C6.5 13.0473 7.95272 14.5 9.75 14.5C11.5473 14.5 13 13.0473 13 11.25C13 9.45272 11.5473 8 9.75 8Z" stroke="white" stroke-width="2" stroke-linejoin="round"/>
</svg>
