<svg width="19" height="19" viewBox="0 0 19 19" fill="none" xmlns="http://www.w3.org/2000/svg">
<path d="M5.19842 0.6875C5.19842 0.505164 5.12598 0.330295 4.99705 0.201364C4.86812 0.0724329 4.69325 0 4.51092 0C4.32858 0 4.15371 0.0724329 4.02478 0.201364C3.89585 0.330295 3.82342 0.505164 3.82342 0.6875V2.13583C2.50342 2.24125 1.63808 2.49975 1.00192 3.13683C0.364833 3.773 0.106333 4.63925 0 5.95833H18.1885C18.0822 4.63833 17.8237 3.773 17.1866 3.13683C16.5504 2.49975 15.6842 2.24125 14.3651 2.13492V0.6875C14.3651 0.505164 14.2927 0.330295 14.1637 0.201364C14.0348 0.0724329 13.8599 0 13.6776 0C13.4952 0 13.3204 0.0724329 13.1914 0.201364C13.0625 0.330295 12.9901 0.505164 12.9901 0.6875V2.07442C12.3805 2.0625 11.6967 2.0625 10.9276 2.0625H7.26092C6.49183 2.0625 5.808 2.0625 5.19842 2.07442V0.6875Z" fill="#373737"/>
<path fill-rule="evenodd" clip-rule="evenodd" d="M0 9.396C0 8.62691 1.02445e-08 7.94308 0.0119167 7.3335H18.3214C18.3333 7.94308 18.3333 8.62691 18.3333 9.396V11.2293C18.3333 14.6861 18.3333 16.4149 17.259 17.4883C16.1847 18.5617 14.4567 18.5627 11 18.5627H7.33333C3.87658 18.5627 2.14775 18.5627 1.07433 17.4883C0.0009166 16.414 0 14.6861 0 11.2293V9.396ZM13.75 11.2293C13.9931 11.2293 14.2263 11.1328 14.3982 10.9608C14.5701 10.7889 14.6667 10.5558 14.6667 10.3127C14.6667 10.0695 14.5701 9.83639 14.3982 9.66448C14.2263 9.49257 13.9931 9.396 13.75 9.396C13.5069 9.396 13.2737 9.49257 13.1018 9.66448C12.9299 9.83639 12.8333 10.0695 12.8333 10.3127C12.8333 10.5558 12.9299 10.7889 13.1018 10.9608C13.2737 11.1328 13.5069 11.2293 13.75 11.2293ZM13.75 14.896C13.9931 14.896 14.2263 14.7994 14.3982 14.6275C14.5701 14.4556 14.6667 14.2224 14.6667 13.9793C14.6667 13.7362 14.5701 13.5031 14.3982 13.3311C14.2263 13.1592 13.9931 13.0627 13.75 13.0627C13.5069 13.0627 13.2737 13.1592 13.1018 13.3311C12.9299 13.5031 12.8333 13.7362 12.8333 13.9793C12.8333 14.2224 12.9299 14.4556 13.1018 14.6275C13.2737 14.7994 13.5069 14.896 13.75 14.896ZM10.0833 10.3127C10.0833 10.5558 9.98676 10.7889 9.81485 10.9608C9.64294 11.1328 9.40978 11.2293 9.16667 11.2293C8.92355 11.2293 8.69039 11.1328 8.51849 10.9608C8.34658 10.7889 8.25 10.5558 8.25 10.3127C8.25 10.0695 8.34658 9.83639 8.51849 9.66448C8.69039 9.49257 8.92355 9.396 9.16667 9.396C9.40978 9.396 9.64294 9.49257 9.81485 9.66448C9.98676 9.83639 10.0833 10.0695 10.0833 10.3127ZM10.0833 13.9793C10.0833 14.2224 9.98676 14.4556 9.81485 14.6275C9.64294 14.7994 9.40978 14.896 9.16667 14.896C8.92355 14.896 8.69039 14.7994 8.51849 14.6275C8.34658 14.4556 8.25 14.2224 8.25 13.9793C8.25 13.7362 8.34658 13.5031 8.51849 13.3311C8.69039 13.1592 8.92355 13.0627 9.16667 13.0627C9.40978 13.0627 9.64294 13.1592 9.81485 13.3311C9.98676 13.5031 10.0833 13.7362 10.0833 13.9793ZM4.58333 11.2293C4.82645 11.2293 5.05961 11.1328 5.23151 10.9608C5.40342 10.7889 5.5 10.5558 5.5 10.3127C5.5 10.0695 5.40342 9.83639 5.23151 9.66448C5.05961 9.49257 4.82645 9.396 4.58333 9.396C4.34022 9.396 4.10706 9.49257 3.93515 9.66448C3.76324 9.83639 3.66667 10.0695 3.66667 10.3127C3.66667 10.5558 3.76324 10.7889 3.93515 10.9608C4.10706 11.1328 4.34022 11.2293 4.58333 11.2293ZM4.58333 14.896C4.82645 14.896 5.05961 14.7994 5.23151 14.6275C5.40342 14.4556 5.5 14.2224 5.5 13.9793C5.5 13.7362 5.40342 13.5031 5.23151 13.3311C5.05961 13.1592 4.82645 13.0627 4.58333 13.0627C4.34022 13.0627 4.10706 13.1592 3.93515 13.3311C3.76324 13.5031 3.66667 13.7362 3.66667 13.9793C3.66667 14.2224 3.76324 14.4556 3.93515 14.6275C4.10706 14.7994 4.34022 14.896 4.58333 14.896Z" fill="#373737"/>
</svg>
