<svg width="18" height="21" viewBox="0 0 18 21" fill="none" xmlns="http://www.w3.org/2000/svg">
<path d="M15.3637 2.70232C17.0159 4.39598 17.9609 6.68202 17.9988 9.07705C18.0367 11.4721 17.1645 13.7883 15.5666 15.536L15.3637 15.7513L11.1208 20.0999C10.5824 20.6515 9.85967 20.9726 9.09897 20.9983C8.33827 21.024 7.59648 20.7523 7.02387 20.2383L6.87988 20.0999L2.63599 15.7503C0.948193 14.02 0 11.6733 0 9.22629C0 6.77933 0.948193 4.43258 2.63599 2.70232C4.32378 0.972053 6.61292 0 8.99982 0C11.3867 0 13.6759 0.972053 15.3637 2.70232ZM8.99982 6.15088C8.60587 6.15088 8.21577 6.23043 7.8518 6.38498C7.48783 6.53954 7.15712 6.76607 6.87856 7.05165C6.59999 7.33723 6.37901 7.67626 6.22825 8.04938C6.07749 8.42251 5.9999 8.82242 5.9999 9.22629C5.9999 9.63016 6.07749 10.0301 6.22825 10.4032C6.37901 10.7763 6.59999 11.1154 6.87856 11.4009C7.15712 11.6865 7.48783 11.913 7.8518 12.0676C8.21577 12.2222 8.60587 12.3017 8.99982 12.3017C9.79545 12.3017 10.5585 11.9777 11.1211 11.4009C11.6837 10.8242 11.9997 10.0419 11.9997 9.22629C11.9997 8.41064 11.6837 7.6284 11.1211 7.05165C10.5585 6.4749 9.79545 6.15088 8.99982 6.15088Z" fill="#373737"/>
</svg>
