<svg width="19" height="17" viewBox="0 0 19 17" fill="none" xmlns="http://www.w3.org/2000/svg">
<path d="M14.6667 5.331e-07C15.6391 5.331e-07 16.5718 0.386309 17.2594 1.07394C17.947 1.76158 18.3333 2.69421 18.3333 3.66667V12.8333C18.3333 13.8058 17.947 14.7384 17.2594 15.4261C16.5718 16.1137 15.6391 16.5 14.6667 16.5H3.66667C2.69421 16.5 1.76158 16.1137 1.07394 15.4261C0.386308 14.7384 0 13.8058 0 12.8333V3.66667C0 3.63428 0.00152788 3.60311 0.00458344 3.57317C0.0275643 2.61734 0.42354 1.70842 1.10786 1.04071C1.79219 0.373005 2.71056 -0.000515075 3.66667 5.331e-07H14.6667ZM13.75 11H4.58333C4.34022 11 4.10706 11.0966 3.93515 11.2685C3.76324 11.4404 3.66667 11.6736 3.66667 11.9167C3.66667 12.1598 3.76324 12.3929 3.93515 12.5648C4.10706 12.7368 4.34022 12.8333 4.58333 12.8333H13.75C13.9931 12.8333 14.2263 12.7368 14.3982 12.5648C14.5701 12.3929 14.6667 12.1598 14.6667 11.9167C14.6667 11.6736 14.5701 11.4404 14.3982 11.2685C14.2263 11.0966 13.9931 11 13.75 11ZM6.41667 3.66667C5.70368 3.66629 5.01852 3.9433 4.50614 4.43909C3.99375 4.93488 3.69434 5.61056 3.67125 6.32317C3.66813 6.35424 3.6666 6.38544 3.66667 6.41667C3.66667 6.96057 3.82795 7.49225 4.13013 7.94449C4.4323 8.39672 4.86179 8.7492 5.36429 8.95734C5.86678 9.16548 6.41972 9.21994 6.95317 9.11383C7.48661 9.00772 7.97662 8.74581 8.36121 8.36121C8.74581 7.97662 9.00772 7.48661 9.11383 6.95317C9.21994 6.41972 9.16548 5.86678 8.95734 5.36429C8.7492 4.86179 8.39672 4.4323 7.94449 4.13013C7.49225 3.82795 6.96057 3.66667 6.41667 3.66667ZM13.75 7.33333H11.9167C11.6736 7.33333 11.4404 7.42991 11.2685 7.60182C11.0966 7.77373 11 8.00689 11 8.25C11 8.49312 11.0966 8.72627 11.2685 8.89818C11.4404 9.07009 11.6736 9.16667 11.9167 9.16667H13.75C13.9931 9.16667 14.2263 9.07009 14.3982 8.89818C14.5701 8.72627 14.6667 8.49312 14.6667 8.25C14.6667 8.00689 14.5701 7.77373 14.3982 7.60182C14.2263 7.42991 13.9931 7.33333 13.75 7.33333ZM13.75 3.66667H11.9167C11.6736 3.66667 11.4404 3.76324 11.2685 3.93515C11.0966 4.10706 11 4.34022 11 4.58333C11 4.82645 11.0966 5.05961 11.2685 5.23151C11.4404 5.40342 11.6736 5.5 11.9167 5.5H13.75C13.9931 5.5 14.2263 5.40342 14.3982 5.23151C14.5701 5.05961 14.6667 4.82645 14.6667 4.58333C14.6667 4.34022 14.5701 4.10706 14.3982 3.93515C14.2263 3.76324 13.9931 3.66667 13.75 3.66667Z" fill="#233E99"/>
</svg>
