<svg width="19" height="19" viewBox="0 0 19 19" fill="none" xmlns="http://www.w3.org/2000/svg">
<path d="M14.2798 2.22933L12.4465 1.26683C10.8368 0.422583 10.032 0 9.16667 0C8.30133 0 7.4965 0.421667 5.88683 1.26683L5.59258 1.42175L13.772 6.09583L17.4533 4.25333C16.8612 3.58233 15.906 3.08092 14.2798 2.2275M18.1023 5.467L14.4375 7.30033V10.0833C14.4375 10.2657 14.3651 10.4405 14.2361 10.5695C14.1072 10.6984 13.9323 10.7708 13.75 10.7708C13.5677 10.7708 13.3928 10.6984 13.2639 10.5695C13.1349 10.4405 13.0625 10.2657 13.0625 10.0833V7.98783L9.85417 9.592V18.2453C10.5123 18.0812 11.2613 17.6889 12.4465 17.0665L14.2798 16.104C16.2516 15.0691 17.2379 14.5521 17.7861 13.6217C18.3333 12.6922 18.3333 11.5344 18.3333 9.22167V9.11442C18.3333 7.37917 18.3333 6.29383 18.1023 5.467ZM8.47917 18.2453V9.592L0.231 5.467C8.19564e-08 6.29383 0 7.37917 0 9.11258V9.21983C0 11.5344 -1.09275e-07 12.6922 0.54725 13.6217C1.09542 14.5521 2.08175 15.07 4.0535 16.1049L5.88683 17.0665C7.07208 17.6889 7.821 18.0812 8.47917 18.2453ZM0.88 4.25425L9.16667 8.39758L12.2934 6.83467L4.14792 2.17983L4.0535 2.22933C2.42825 3.08183 1.47217 3.58325 0.88 4.25517" fill="#373737"/>
</svg>
