<svg width="20" height="15" viewBox="0 0 20 15" fill="none" xmlns="http://www.w3.org/2000/svg">
<path d="M12 3.36802e-10C12.2589 -6.71349e-06 12.5076 0.100362 12.694 0.28L12.781 0.375L16.48 5H17C17.7652 4.99996 18.5015 5.29233 19.0583 5.81728C19.615 6.34224 19.9501 7.06011 19.995 7.824L20 8V12C20 12.2652 19.8946 12.5196 19.7071 12.7071C19.5196 12.8946 19.2652 13 19 13H17.829C17.622 13.5848 17.2388 14.0912 16.7322 14.4492C16.2256 14.8073 15.6204 14.9996 15 14.9996C14.3796 14.9996 13.7744 14.8073 13.2678 14.4492C12.7612 14.0912 12.378 13.5848 12.171 13H7.829C7.62198 13.5848 7.2388 14.0912 6.73217 14.4492C6.22555 14.8073 5.6204 14.9996 5 14.9996C4.3796 14.9996 3.77445 14.8073 3.26782 14.4492C2.7612 14.0912 2.37802 13.5848 2.171 13H1C0.734784 13 0.48043 12.8946 0.292893 12.7071C0.105357 12.5196 0 12.2652 0 12V6L0.00699997 5.883L0.0150001 5.827L0.0320001 5.749L0.0439999 5.713L0.0580001 5.663L2.072 0.629C2.14613 0.443438 2.27416 0.284342 2.43957 0.172228C2.60498 0.0601149 2.80018 0.000126477 3 3.36802e-10H12ZM5 11C4.73478 11 4.48043 11.1054 4.29289 11.2929C4.10536 11.4804 4 11.7348 4 12C4 12.2652 4.10536 12.5196 4.29289 12.7071C4.48043 12.8946 4.73478 13 5 13C5.26522 13 5.51957 12.8946 5.70711 12.7071C5.89464 12.5196 6 12.2652 6 12C6 11.7348 5.89464 11.4804 5.70711 11.2929C5.51957 11.1054 5.26522 11 5 11ZM15 11C14.7348 11 14.4804 11.1054 14.2929 11.2929C14.1054 11.4804 14 11.7348 14 12C14 12.2652 14.1054 12.5196 14.2929 12.7071C14.4804 12.8946 14.7348 13 15 13C15.2652 13 15.5196 12.8946 15.7071 12.7071C15.8946 12.5196 16 12.2652 16 12C16 11.7348 15.8946 11.4804 15.7071 11.2929C15.5196 11.1054 15.2652 11 15 11ZM9 2H3.676L2.476 5H9V2ZM11.52 2H11V5H13.92L11.52 2Z" fill="#373737"/>
</svg>
